<?xml version="1.0" encoding="UTF-8"?>
<svg xmlns="http://www.w3.org/2000/svg" viewBox="0 0 64 64">
  <defs>
    <linearGradient id="g" x1="0" x2="1" y1="0" y2="1">
      <stop offset="0" stop-color="#6f42c1"/>
      <stop offset="1" stop-color="#20c997"/>
    </linearGradient>
  </defs>
  <rect width="64" height="64" rx="12" fill="url(#g)" />
  <g transform="translate(12,12) scale(0.8)" fill="#fff">
    <path d="M14.5 3.5c-3.6 0-6.5 3-6.5 6.7v10.6c0 3.7 2.9 6.7 6.5 6.7h15c3.6 0 6.5-3 6.5-6.7V10.2c0-3.7-2.9-6.7-6.5-6.7h-15zm0 2h15c2.5 0 4.5 2 4.5 4.7v10.6c0 2.6-2 4.7-4.5 4.7h-15c-2.5 0-4.5-2-4.5-4.7V10.2c0-2.6 2-4.7 4.5-4.7z"/>
    <path d="M8 26v4h20v-4z" opacity="0.15"/>
    <text x="12" y="22" font-family="Arial, Helvetica, sans-serif" font-size="18" font-weight="700">D</text>
  </g>
</svg>
